# xmcd
#
# Track frame offsets: 
#        150
#        20763
#        42382
#        61915
#        80501
#        96064
#        121825
#        140143
#        158955
#
# Disc length: 2561 seconds
#
# Revision: 0
# Processed by: cddbd v1.5.2PL0 Copyright (c) Steve Scherf et al.
# Submitted via: ExactAudioCopyFreeDBPlugin 1.0
#
DISCID=7709ff09
DTITLE=Eric Tessmer - Blues Bullets
DYEAR=2008
DGENRE=Blues
TTITLE0=Rebuttal
TTITLE1=Blues Bullets
TTITLE2=Ain't With You
TTITLE3=Everytime
TTITLE4=Origin
TTITLE5=Blind Blue Eyes
TTITLE6=The Reverse
TTITLE7=White Chinese Hair
TTITLE8=Noise Song
EXTD=
EXTT0=
EXTT1=
EXTT2=
EXTT3=
EXTT4=
EXTT5=
EXTT6=
EXTT7=
EXTT8=
PLAYORDER=
